<svg xmlns="http://www.w3.org/2000/svg" width="141.48" height="43.401" viewBox="0 0 141.48 43.401"><path d="M199.833,399.463a3.334,3.334,0,1,1,3.335-3.336,3.131,3.131,0,0,1-3.335,3.336" transform="translate(-184.256 -392.671)" fill="#f9840c"/><path d="M388.7,425.276c0-3.212-1.634-4.376-6.417-4.438-6.013-.114-7.529,1.226-7.588,3.792-.062,4.318,2.452,3.909,6.009,4.089,6.417.349,12.489-.411,12.489,8.458,0,6.652-4.787,8.635-12.489,8.576-7.411-.052-11.5-2.045-11.5-8.693h4.615c0,3.153,1.461,4.435,6.824,4.435,5.25,0,7.588-.525,7.588-4.663,0-3.45-2.042-3.388-6.476-3.561-6.192-.235-12.081.059-12.023-8.289.055-6.711,4.839-8.458,12.489-8.406,6.887.062,11.084,2.044,11.084,8.7Z" transform="translate(-263.643 -402.354)" fill="#fff"/><path d="M179.017,430.67c-1.97,0-2.1-1.353-2.165-3.993V392.546h-4.96v33.539h0v4.636l0,0c.072,3.824,3.235,4.822,5.586,4.822,1.477,0,3.2.01,3.2.01v-4.894c-.632,0-1.024.007-1.666.007" transform="translate(-171.889 -392.546)" fill="#fff"/><path d="M230.009,430.67c-1.969,0-2.11-1.353-2.168-3.993V392.546h-4.959v38.175l0,0c.068,3.824,3.235,4.822,5.582,4.822,1.477,0,3.212.01,3.212.01v-4.894c-.632,0-1.027.007-1.669.007" transform="translate(-196.013 -392.546)" fill="#fff"/><path d="M205.358,441.26c-1.966,0-2.106-1.282-2.158-3.783V417.619h-4.966v23.689l.01,0c.059,3.622,3.228,4.568,5.576,4.568,1.477,0,3.208.009,3.208.009v-4.636c-.626,0-1.024.006-1.67.006" transform="translate(-185.125 -402.878)" fill="#fff"/><path d="M257.44,441.5c-4.96,0-6.418-1.461-6.418-4.611,0-4.02,2.042-4.722,6.418-4.722h8.634c0,6.241-.639,9.333-8.634,9.333m15.668-.721c-2.123,0-2.123-1.47-2.188-4.363v-8.455c0-4.666.29-11.38-11.609-11.38-6.952,0-12.492,1.637-12.492,8.583H251.6c0-4.027,4.027-4.207,7.295-4.207,7.235,0,7.121,2.224,7.121,7h-8.344c-6.13,0-11.673.992-11.673,8.99,0,6.476,3.965,8.807,10.972,8.807,4.376,0,7.7-1.223,9.391-3.208h.039c.845,2.217,3.238,2.853,5.162,2.853,1.477,0,2.289-.013,3.205-.013v-4.611Z" transform="translate(-206.54 -402.354)" fill="#fff"/><path d="M319.2,441.5c-4.962,0-6.423-1.461-6.423-4.611,0-4.02,2.048-4.722,6.423-4.722h8.638c0,6.241-.642,9.333-8.638,9.333m15.658-.721c-2.11,0-2.11-1.47-2.175-4.363h-.01v-8.455c0-4.666.3-11.38-11.605-11.38-6.949,0-12.489,1.637-12.489,8.583h4.784c0-4.027,4.03-4.207,7.3-4.207,7.229,0,7.112,2.224,7.112,7h-8.341c-6.124,0-11.67.992-11.67,8.99,0,6.476,3.969,8.807,10.97,8.807,4.379,0,7.705-1.223,9.4-3.208h.039c.838,2.217,3.231,2.853,5.155,2.853,1.477,0,2.3-.013,3.212-.013v-4.611Z" transform="translate(-235.413 -402.354)" fill="#fff"/><path d="M429.548,420.15h-.775v1.261h.821c.623,0,.985.086.985-.624s-.243-.637-1.031-.637m1.044,4.013V422.79c0-.657-.237-.657-.788-.657h-1.024v2.03h-.822v-4.716H429.6c.959,0,1.793.026,1.793,1.268l-.486,1.018c.321.184.486.413.486,1.11v1.32Zm-.992-5.412c-2.608,0-3.074.551-3.074,3.12,0,2.509.519,3.107,3.074,3.107,2.575,0,3.081-.663,3.081-3.153,0-2.523-.512-3.074-3.081-3.074m0,7.021c-3.093,0-3.908-.9-3.908-3.934,0-3.12.8-3.882,3.908-3.882s3.9.8,3.9,3.9c0,2.995-.841,3.914-3.9,3.914" transform="translate(-292.022 -404.453)" fill="#fff"/></svg>